<svg width="210" height="67" viewBox="0 0 210 67" fill="none" xmlns="http://www.w3.org/2000/svg">
<path d="M27.7734 26C27.7734 26.8438 27.6094 27.4062 27.2812 27.6875C26.9688 27.9531 26.625 28.0859 26.25 28.0859C26.2344 28.0859 26.2188 28.0859 26.2031 28.0859C25.8281 28.0859 25.2188 27.9219 24.375 27.5938C23.5156 27.25 22.5 27.0781 21.3281 27.0781C20.1719 27.0781 19.3203 27.2812 18.7734 27.6875C18.2422 28.0938 17.875 28.6875 17.6719 29.4688C17.4844 30.2344 17.2344 33.4609 16.9219 39.1484C16.625 44.8203 16.4766 48.0234 16.4766 48.7578C16.4766 49.4766 16.6328 50.4297 16.9453 51.6172C17.2578 52.8047 17.4141 53.4531 17.4141 53.5625C17.4141 54.3281 17.0625 54.9219 16.3594 55.3438C15.6719 55.7656 14.7109 55.9766 13.4766 55.9766C12.2422 55.9766 11.2891 55.7734 10.6172 55.3672C9.94531 54.9453 9.60938 54.3672 9.60938 53.6328C9.60938 53.3047 9.85156 52.6094 10.3359 51.5469C10.8359 50.4688 11.1562 49.4141 11.2969 48.3828C11.8906 43.8047 12.1875 38.3125 12.1875 31.9062C12.1875 29.9844 11.9688 28.7188 11.5312 28.1094C11.0938 27.4844 10.3281 27.1719 9.23438 27.1719C8.14062 27.1719 6.96094 27.4141 5.69531 27.8984C4.42969 28.3672 3.65625 28.6016 3.375 28.6016C2.60938 28.6016 2.22656 27.7969 2.22656 26.1875C2.22656 24.5781 2.97656 23.6484 4.47656 23.3984C5.97656 23.1328 10.7031 23 18.6562 23H20.0156L21.3516 22.9766C24.2578 22.9766 25.9062 23.0391 26.2969 23.1641C27.2812 23.4766 27.7734 24.2422 27.7734 25.4609V26ZM29.4844 43.8125V42.0078C29.4844 39.8359 29.3672 38.25 29.1328 37.25C28.8984 36.2344 28.7812 35.5234 28.7812 35.1172C28.7812 34.1641 29.4766 33.6875 30.8672 33.6875C32.2578 33.6875 33.2656 33.9453 33.8906 34.4609C34.0625 34.6016 34.2812 34.875 34.5469 35.2812C34.8281 35.6875 35.0781 35.8906 35.2969 35.8906C35.3438 35.8906 36.0234 35.4922 37.3359 34.6953C38.6484 33.8984 39.7734 33.5 40.7109 33.5H41.0625C41.8281 33.5 42.4375 33.6875 42.8906 34.0625C43.3438 34.4219 43.5703 34.8672 43.5703 35.3984V35.7031C43.5703 36.3438 43.3438 36.8047 42.8906 37.0859C42.4531 37.3672 41.75 37.5078 40.7812 37.5078C38.5781 37.5078 36.9688 38.2812 35.9531 39.8281C34.9531 41.375 34.4531 44.1094 34.4531 48.0312C34.4531 48.5938 34.5469 49.4609 34.7344 50.6328C34.9375 51.8047 35.0391 52.6875 35.0391 53.2812C35.0391 53.875 34.7188 54.4453 34.0781 54.9922C33.4375 55.5391 32.625 55.8125 31.6406 55.8125H30.8438C29.9844 55.8125 29.3203 55.6094 28.8516 55.2031C28.3984 54.7812 28.1719 54.2734 28.1719 53.6797C28.1719 53.0703 28.2812 52.4531 28.5 51.8281C29.0938 50.1406 29.3906 48.2812 29.3906 46.25C29.4531 45.125 29.4844 44.3125 29.4844 43.8125ZM54.5625 53.0469H55.1719C56.4531 53.0469 57.5781 52.6172 58.5469 51.7578C59.5312 50.8828 60.0234 49.875 60.0234 48.7344L60.0703 48.4297V48.125L60.1172 47.3984V46.0625C60.1172 45.1562 59.6562 44.7031 58.7344 44.7031H57.6797L57.5156 44.7266L56.6016 44.7969C56.1641 44.8594 55.8516 44.8906 55.6641 44.8906C54.3984 44.8906 53.2266 45.3672 52.1484 46.3203C51.3984 46.9922 51.0234 47.9453 51.0234 49.1797V49.6484C51.0234 50.6953 51.3594 51.5234 52.0312 52.1328C52.7188 52.7422 53.5625 53.0469 54.5625 53.0469ZM49.3359 38.0703C48.2891 38.0703 47.7656 37.3984 47.7656 36.0547C47.7656 35.0547 48.6094 34.1875 50.2969 33.4531C52 32.7031 53.7656 32.3281 55.5938 32.3281H56.7656C58.3438 32.3281 59.7344 32.625 60.9375 33.2188C62.1406 33.7969 63.0547 34.5859 63.6797 35.5859C64.3203 36.5859 64.7109 37.8906 64.8516 39.5C64.8828 39.875 64.8984 41.6953 64.8984 44.9609C64.8984 48.2266 64.9375 50.1094 65.0156 50.6094C65.1094 51.0938 65.3594 51.6875 65.7656 52.3906C66.1875 53.0938 66.3984 53.6719 66.3984 54.125C66.3984 54.5781 66.1797 54.9688 65.7422 55.2969C65.3203 55.6094 64.7031 55.7656 63.8906 55.7656C63.0781 55.7656 62.1953 55.5703 61.2422 55.1797C60.2891 54.7734 59.5938 54.5703 59.1562 54.5703C59.1094 54.5703 58.3281 54.8516 56.8125 55.4141C55.2969 55.9609 54.0156 56.2344 52.9688 56.2344H52.4531C50.7031 56.2344 49.2109 55.6797 47.9766 54.5703C46.7578 53.4609 46.1484 51.8828 46.1484 49.8359C46.1484 47.7891 46.8203 46.1953 48.1641 45.0547C49.5078 43.8984 51.1406 43.1094 53.0625 42.6875C53.6406 42.5625 54.6016 42.3984 55.9453 42.1953C57.2891 41.9922 58.2031 41.7812 58.6875 41.5625C59.5312 41.1719 59.9531 40.4375 59.9531 39.3594C59.9531 38.2656 59.5938 37.4141 58.875 36.8047C58.1562 36.1797 57.2969 35.8672 56.2969 35.8672C55.3125 35.8672 54.0156 36.2344 52.4062 36.9688C50.7969 37.7031 49.7734 38.0703 49.3359 38.0703ZM80.1094 55.9766C78.9688 55.9766 78.0547 55.25 77.3672 53.7969C76.8516 52.7031 75.9297 50.0859 74.6016 45.9453C73.2891 41.7891 72.4219 39.3125 72 38.5156C70.9531 36.5312 70.4297 35.2656 70.4297 34.7188C70.4297 34.1562 70.6016 33.75 70.9453 33.5C71.2891 33.2344 72.0156 33.1016 73.125 33.1016C74.9062 33.1016 76.0859 33.7578 76.6641 35.0703C76.7734 35.3047 76.9453 36.0312 77.1797 37.25C77.4141 38.4531 77.6484 39.5156 77.8828 40.4375L78.3516 42.5C79.5234 47.6562 80.4219 50.2344 81.0469 50.2344C81.4688 50.2344 82.6562 47.6016 84.6094 42.3359C85.5 39.9297 86.0703 38.0391 86.3203 36.6641C86.5859 35.2734 86.7578 34.5 86.8359 34.3438C87.2891 33.4844 88.2422 33.0547 89.6953 33.0547H90.1641C91.2266 33.0547 91.7578 33.5938 91.7578 34.6719C91.7578 35.4375 91.5234 36.2188 91.0547 37.0156C90.5859 37.8125 89.4922 40.2656 87.7734 44.375C86.0703 48.4688 84.8125 51.25 84 52.7188C83.1875 54.1719 82.5156 55.0781 81.9844 55.4375C81.4688 55.7969 80.8438 55.9766 80.1094 55.9766ZM99.5859 41.75V42.125C99.5859 42.5938 100.016 42.8281 100.875 42.8281H101.438L101.578 42.8047L102.727 42.7109C103.93 42.5391 104.711 42.4531 105.07 42.4531C106.773 42.4531 108.055 42.1328 108.914 41.4922C109.32 41.1797 109.523 40.625 109.523 39.8281V39.5703C109.523 38.3984 109.133 37.4688 108.352 36.7812C107.586 36.0938 106.664 35.75 105.586 35.75H105.422L105.281 35.7734C103.766 35.7734 102.438 36.4141 101.297 37.6953C100.156 38.9766 99.5859 40.3281 99.5859 41.75ZM104.695 56.3047H104.18C101.195 56.3047 98.8203 55.3594 97.0547 53.4688C95.2891 51.5625 94.4062 49.0234 94.4062 45.8516V44.8203C94.4062 43.3047 94.7031 41.7656 95.2969 40.2031C96.5 37.0781 98.4609 34.9219 101.18 33.7344C102.617 33.0938 104.078 32.7734 105.562 32.7734H106.57C108.617 32.7734 110.344 33.4609 111.75 34.8359C113.172 36.1953 113.883 37.9531 113.883 40.1094V40.5781C113.883 42.1094 113.273 43.1953 112.055 43.8359C111.211 44.2891 109.242 44.7422 106.148 45.1953C103.055 45.6484 101.367 45.9219 101.086 46.0156C100.148 46.3438 99.6797 46.9688 99.6797 47.8906C99.6797 49.1719 100.227 50.2656 101.32 51.1719C102.414 52.0781 103.883 52.5312 105.727 52.5312C106.586 52.5312 107.758 52.2969 109.242 51.8281C110.727 51.3594 111.586 51.125 111.82 51.125C112.617 51.125 113.016 51.4688 113.016 52.1562C113.016 53.0781 112.117 54 110.32 54.9219C108.523 55.8438 106.648 56.3047 104.695 56.3047ZM120.281 23.4219C120.281 22.2812 121.352 21.7109 123.492 21.7109H123.914C124.805 21.7109 125.414 21.9297 125.742 22.3672C126.07 22.7891 126.234 23.6172 126.234 24.8516L126.047 28.3438C126 28.8906 125.977 29.1875 125.977 29.2344L125.93 30.125C125.898 30.7031 125.867 31.2891 125.836 31.8828L125.766 32.7734L125.695 34.1094C125.445 38.8594 125.32 42.3672 125.32 44.6328C125.32 46.8828 125.422 48.5 125.625 49.4844C125.828 50.4688 126.148 51.3047 126.586 51.9922C127.023 52.6797 127.242 53.1328 127.242 53.3516V53.6328C127.242 54.3203 126.898 54.8672 126.211 55.2734C125.539 55.6797 124.625 55.8828 123.469 55.8828H122.25C121.531 55.8828 120.898 55.6797 120.352 55.2734C119.82 54.8516 119.555 54.375 119.555 53.8438V53.2109L119.695 52.2266C119.883 50.8672 119.992 49.8516 120.023 49.1797C120.07 48.4922 120.141 47.5469 120.234 46.3438C120.328 45.125 120.477 42.5391 120.68 38.5859C120.898 34.6172 121.008 32.4844 121.008 32.1875L121.102 30.4297L121.148 28.6953C121.148 27.0391 121 25.8594 120.703 25.1562C120.422 24.4375 120.281 23.8594 120.281 23.4219ZM136.148 56.375H135.422C134.641 56.375 134.031 56.1953 133.594 55.8359C133.172 55.4766 132.961 55 132.961 54.4062C132.93 54.2812 132.914 54.1797 132.914 54.1016L132.867 53.7031V53.2812L132.891 53.1875V52.9766C132.922 52.8516 132.938 52.75 132.938 52.6719C132.938 51.9688 133.172 51.4219 133.641 51.0312C134.125 50.625 134.656 50.4219 135.234 50.4219L135.727 50.3516H136.359C138.062 50.3516 138.914 51.2422 138.914 53.0234V53.3516L138.82 54.1484C138.82 54.8672 138.547 55.4219 138 55.8125C137.469 56.1875 136.852 56.375 136.148 56.375Z" fill="#0D7FCC"/>
<path d="M195.168 12.6848C196.493 13.2683 197.155 14.68 196.646 15.8358L192.035 26.3055L194.435 27.3626L195.357 25.2687L200.157 27.3828L199.235 29.4767L201.635 30.5338C202.96 31.1173 203.622 32.529 203.113 33.6848L192.046 58.8121C191.537 59.968 190.048 60.4325 188.724 59.849L186.323 58.7919L185.401 60.8859L180.601 58.7717L181.523 56.6778L157.523 46.1071L156.6 48.2011L151.8 46.0869L152.722 43.993L150.322 42.9359C148.997 42.3524 148.335 40.9408 148.844 39.7849L159.911 14.6576C160.42 13.5017 161.909 13.0372 163.234 13.6207L165.634 14.6778L166.556 12.5838L171.356 14.698L170.434 16.7919L172.834 17.849L177.445 7.37928C177.954 6.22342 179.443 5.7589 180.767 6.3424L195.168 12.6848ZM172.467 25.1879L167.667 23.0737L160.289 39.8253L165.089 41.9394L172.467 25.1879ZM182.068 29.4162L177.267 27.302L169.89 44.0536L174.69 46.1677L182.068 29.4162ZM191.668 33.6444L186.868 31.5303L179.49 48.2818L184.29 50.396L191.668 33.6444ZM190.923 15.8156L181.323 11.5874L177.634 19.9631L187.234 24.1914L190.923 15.8156Z" fill="#F1C40E"/>
<path d="M144.312 53.6992V53.3242C144.312 52.082 144.508 50.8828 144.898 49.7266C145.633 47.5625 146.926 46.043 148.777 45.168C149.785 44.6914 150.828 44.4531 151.906 44.4531H152.27C153.902 44.4531 155.062 44.6914 155.75 45.168C156.438 45.6445 156.781 46.2461 156.781 46.9727C156.781 47.4102 156.695 47.7031 156.523 47.8516C156.352 48 156.184 48.0742 156.02 48.0742C155.863 48.0742 155.523 47.8945 155 47.5352C154.484 47.1758 153.984 46.8984 153.5 46.7031C153.016 46.5 152.41 46.3984 151.684 46.3984C150.957 46.3984 150.297 46.5781 149.703 46.9375C147.922 48.0234 147.027 50.2539 147.02 53.6289C147.02 54.5039 147.137 55.293 147.371 55.9961C148.082 58.1211 149.5 59.1836 151.625 59.1836C152.656 59.1836 153.844 58.8086 155.188 58.0586C155.609 57.8242 155.922 57.707 156.125 57.707C156.461 57.707 156.629 57.8984 156.629 58.2812C156.629 58.5234 156.52 58.793 156.301 59.0898C155.918 59.6211 155.418 60.0391 154.801 60.3438C153.754 60.8672 152.59 61.1289 151.309 61.1289H150.934C148.934 61.1289 147.324 60.4609 146.105 59.125C145.527 58.4922 145.082 57.6953 144.77 56.7344C144.465 55.7734 144.312 54.7617 144.312 53.6992ZM161.246 56.0547C161.246 57.0781 161.48 57.9297 161.949 58.6094C162.418 59.2891 162.992 59.6289 163.672 59.6289H164.023C164.828 59.6289 165.508 59.2227 166.062 58.4102C166.625 57.5977 166.906 56.5156 166.906 55.1641V54.3906C166.906 53.3438 166.676 52.4883 166.215 51.8242C165.762 51.1523 165.176 50.8164 164.457 50.8164H164.223C163.387 50.8164 162.684 51.2305 162.113 52.0586C161.551 52.8867 161.27 53.875 161.27 55.0234L161.246 55.293V56.0547ZM163.895 61.2227H163.52C162.152 61.2227 161.039 60.7461 160.18 59.793C159.32 58.8398 158.891 57.4883 158.891 55.7383L158.902 55.5391C158.902 53.6172 159.41 52.1016 160.426 50.9922C160.957 50.4062 161.562 49.9766 162.242 49.7031C162.93 49.4219 163.582 49.2812 164.199 49.2812H164.773C165.461 49.2812 166.121 49.4336 166.754 49.7383C168.566 50.6133 169.473 52.2617 169.473 54.6836V54.8711C169.465 55.6602 169.336 56.4609 169.086 57.2734C168.586 58.875 167.625 60.0078 166.203 60.6719C165.414 61.0391 164.645 61.2227 163.895 61.2227ZM176.785 50.1602C177.387 49.9336 178.004 49.8203 178.637 49.8203C179.27 49.8203 179.926 50.0078 180.605 50.3828C181.293 50.7578 181.668 50.9453 181.73 50.9453C181.793 50.9453 182.215 50.7539 182.996 50.3711C183.777 49.9883 184.48 49.7969 185.105 49.7969C185.738 49.7969 186.258 49.9297 186.664 50.1953C187.078 50.4531 187.391 50.7617 187.602 51.1211C188 51.8086 188.199 53.3359 188.199 55.7031C188.199 56.7656 188.207 57.375 188.223 57.5312C188.246 57.6797 188.301 57.9492 188.387 58.3398C188.48 58.7227 188.527 59.0391 188.527 59.2891C188.527 59.5312 188.426 59.7852 188.223 60.0508C188.02 60.3164 187.75 60.4492 187.414 60.4492C186.75 60.4492 186.355 60.1797 186.23 59.6406C186.137 59.25 186.027 58.1094 185.902 56.2188C185.785 54.3281 185.656 53.2188 185.516 52.8906C185.234 52.2031 184.637 51.8594 183.723 51.8594C183.137 51.8594 182.68 52.2266 182.352 52.9609C181.875 54.0156 181.637 55.5156 181.637 57.4609L181.754 59.1484C181.754 59.7422 181.535 60.1914 181.098 60.4961C180.816 60.6914 180.441 60.7891 179.973 60.7891C179.512 60.7891 179.207 60.7422 179.059 60.6484C178.801 60.4922 178.672 60.1602 178.672 59.6523C178.672 59.5586 178.746 59.1758 178.895 58.5039C179.051 57.8242 179.129 56.7227 179.129 55.1992C179.129 53.668 179.016 52.6953 178.789 52.2812C178.562 51.8594 178.168 51.6484 177.605 51.6484C177.043 51.6484 176.543 51.8398 176.105 52.2227C175.676 52.6055 175.359 53.0234 175.156 53.4766C174.961 53.9297 174.785 55.0078 174.629 56.7109C174.48 58.4141 174.375 59.3906 174.312 59.6406C174.203 60.0703 173.887 60.2852 173.363 60.2852C172.848 60.2852 172.492 60.1328 172.297 59.8281C172.109 59.5156 172.016 59.1367 172.016 58.6914L172.074 58.2812L172.297 57.4727C172.391 57.0977 172.445 56.6602 172.461 56.1602C172.578 53.0586 172.668 51.2891 172.73 50.8516C172.793 50.4141 173.074 50.1953 173.574 50.1953L175.32 50.4883C175.695 50.4883 176.184 50.3789 176.785 50.1602Z" fill="#0D7FCC"/>
<path d="M27.7734 26C27.7734 26.8438 27.6094 27.4062 27.2812 27.6875C26.9688 27.9531 26.625 28.0859 26.25 28.0859C26.2344 28.0859 26.2188 28.0859 26.2031 28.0859C25.8281 28.0859 25.2188 27.9219 24.375 27.5938C23.5156 27.25 22.5 27.0781 21.3281 27.0781C20.1719 27.0781 19.3203 27.2812 18.7734 27.6875C18.2422 28.0938 17.875 28.6875 17.6719 29.4688C17.4844 30.2344 17.2344 33.4609 16.9219 39.1484C16.625 44.8203 16.4766 48.0234 16.4766 48.7578C16.4766 49.4766 16.6328 50.4297 16.9453 51.6172C17.2578 52.8047 17.4141 53.4531 17.4141 53.5625C17.4141 54.3281 17.0625 54.9219 16.3594 55.3438C15.6719 55.7656 14.7109 55.9766 13.4766 55.9766C12.2422 55.9766 11.2891 55.7734 10.6172 55.3672C9.94531 54.9453 9.60938 54.3672 9.60938 53.6328C9.60938 53.3047 9.85156 52.6094 10.3359 51.5469C10.8359 50.4688 11.1562 49.4141 11.2969 48.3828C11.8906 43.8047 12.1875 38.3125 12.1875 31.9062C12.1875 29.9844 11.9688 28.7188 11.5312 28.1094C11.0938 27.4844 10.3281 27.1719 9.23438 27.1719C8.14062 27.1719 6.96094 27.4141 5.69531 27.8984C4.42969 28.3672 3.65625 28.6016 3.375 28.6016C2.60938 28.6016 2.22656 27.7969 2.22656 26.1875C2.22656 24.5781 2.97656 23.6484 4.47656 23.3984C5.97656 23.1328 10.7031 23 18.6562 23H20.0156L21.3516 22.9766C24.2578 22.9766 25.9062 23.0391 26.2969 23.1641C27.2812 23.4766 27.7734 24.2422 27.7734 25.4609V26ZM29.4844 43.8125V42.0078C29.4844 39.8359 29.3672 38.25 29.1328 37.25C28.8984 36.2344 28.7812 35.5234 28.7812 35.1172C28.7812 34.1641 29.4766 33.6875 30.8672 33.6875C32.2578 33.6875 33.2656 33.9453 33.8906 34.4609C34.0625 34.6016 34.2812 34.875 34.5469 35.2812C34.8281 35.6875 35.0781 35.8906 35.2969 35.8906C35.3438 35.8906 36.0234 35.4922 37.3359 34.6953C38.6484 33.8984 39.7734 33.5 40.7109 33.5H41.0625C41.8281 33.5 42.4375 33.6875 42.8906 34.0625C43.3438 34.4219 43.5703 34.8672 43.5703 35.3984V35.7031C43.5703 36.3438 43.3438 36.8047 42.8906 37.0859C42.4531 37.3672 41.75 37.5078 40.7812 37.5078C38.5781 37.5078 36.9688 38.2812 35.9531 39.8281C34.9531 41.375 34.4531 44.1094 34.4531 48.0312C34.4531 48.5938 34.5469 49.4609 34.7344 50.6328C34.9375 51.8047 35.0391 52.6875 35.0391 53.2812C35.0391 53.875 34.7188 54.4453 34.0781 54.9922C33.4375 55.5391 32.625 55.8125 31.6406 55.8125H30.8438C29.9844 55.8125 29.3203 55.6094 28.8516 55.2031C28.3984 54.7812 28.1719 54.2734 28.1719 53.6797C28.1719 53.0703 28.2812 52.4531 28.5 51.8281C29.0938 50.1406 29.3906 48.2812 29.3906 46.25C29.4531 45.125 29.4844 44.3125 29.4844 43.8125ZM54.5625 53.0469H55.1719C56.4531 53.0469 57.5781 52.6172 58.5469 51.7578C59.5312 50.8828 60.0234 49.875 60.0234 48.7344L60.0703 48.4297V48.125L60.1172 47.3984V46.0625C60.1172 45.1562 59.6562 44.7031 58.7344 44.7031H57.6797L57.5156 44.7266L56.6016 44.7969C56.1641 44.8594 55.8516 44.8906 55.6641 44.8906C54.3984 44.8906 53.2266 45.3672 52.1484 46.3203C51.3984 46.9922 51.0234 47.9453 51.0234 49.1797V49.6484C51.0234 50.6953 51.3594 51.5234 52.0312 52.1328C52.7188 52.7422 53.5625 53.0469 54.5625 53.0469ZM49.3359 38.0703C48.2891 38.0703 47.7656 37.3984 47.7656 36.0547C47.7656 35.0547 48.6094 34.1875 50.2969 33.4531C52 32.7031 53.7656 32.3281 55.5938 32.3281H56.7656C58.3438 32.3281 59.7344 32.625 60.9375 33.2188C62.1406 33.7969 63.0547 34.5859 63.6797 35.5859C64.3203 36.5859 64.7109 37.8906 64.8516 39.5C64.8828 39.875 64.8984 41.6953 64.8984 44.9609C64.8984 48.2266 64.9375 50.1094 65.0156 50.6094C65.1094 51.0938 65.3594 51.6875 65.7656 52.3906C66.1875 53.0938 66.3984 53.6719 66.3984 54.125C66.3984 54.5781 66.1797 54.9688 65.7422 55.2969C65.3203 55.6094 64.7031 55.7656 63.8906 55.7656C63.0781 55.7656 62.1953 55.5703 61.2422 55.1797C60.2891 54.7734 59.5938 54.5703 59.1562 54.5703C59.1094 54.5703 58.3281 54.8516 56.8125 55.4141C55.2969 55.9609 54.0156 56.2344 52.9688 56.2344H52.4531C50.7031 56.2344 49.2109 55.6797 47.9766 54.5703C46.7578 53.4609 46.1484 51.8828 46.1484 49.8359C46.1484 47.7891 46.8203 46.1953 48.1641 45.0547C49.5078 43.8984 51.1406 43.1094 53.0625 42.6875C53.6406 42.5625 54.6016 42.3984 55.9453 42.1953C57.2891 41.9922 58.2031 41.7812 58.6875 41.5625C59.5312 41.1719 59.9531 40.4375 59.9531 39.3594C59.9531 38.2656 59.5938 37.4141 58.875 36.8047C58.1562 36.1797 57.2969 35.8672 56.2969 35.8672C55.3125 35.8672 54.0156 36.2344 52.4062 36.9688C50.7969 37.7031 49.7734 38.0703 49.3359 38.0703ZM80.1094 55.9766C78.9688 55.9766 78.0547 55.25 77.3672 53.7969C76.8516 52.7031 75.9297 50.0859 74.6016 45.9453C73.2891 41.7891 72.4219 39.3125 72 38.5156C70.9531 36.5312 70.4297 35.2656 70.4297 34.7188C70.4297 34.1562 70.6016 33.75 70.9453 33.5C71.2891 33.2344 72.0156 33.1016 73.125 33.1016C74.9062 33.1016 76.0859 33.7578 76.6641 35.0703C76.7734 35.3047 76.9453 36.0312 77.1797 37.25C77.4141 38.4531 77.6484 39.5156 77.8828 40.4375L78.3516 42.5C79.5234 47.6562 80.4219 50.2344 81.0469 50.2344C81.4688 50.2344 82.6562 47.6016 84.6094 42.3359C85.5 39.9297 86.0703 38.0391 86.3203 36.6641C86.5859 35.2734 86.7578 34.5 86.8359 34.3438C87.2891 33.4844 88.2422 33.0547 89.6953 33.0547H90.1641C91.2266 33.0547 91.7578 33.5938 91.7578 34.6719C91.7578 35.4375 91.5234 36.2188 91.0547 37.0156C90.5859 37.8125 89.4922 40.2656 87.7734 44.375C86.0703 48.4688 84.8125 51.25 84 52.7188C83.1875 54.1719 82.5156 55.0781 81.9844 55.4375C81.4688 55.7969 80.8438 55.9766 80.1094 55.9766ZM99.5859 41.75V42.125C99.5859 42.5938 100.016 42.8281 100.875 42.8281H101.438L101.578 42.8047L102.727 42.7109C103.93 42.5391 104.711 42.4531 105.07 42.4531C106.773 42.4531 108.055 42.1328 108.914 41.4922C109.32 41.1797 109.523 40.625 109.523 39.8281V39.5703C109.523 38.3984 109.133 37.4688 108.352 36.7812C107.586 36.0938 106.664 35.75 105.586 35.75H105.422L105.281 35.7734C103.766 35.7734 102.438 36.4141 101.297 37.6953C100.156 38.9766 99.5859 40.3281 99.5859 41.75ZM104.695 56.3047H104.18C101.195 56.3047 98.8203 55.3594 97.0547 53.4688C95.2891 51.5625 94.4062 49.0234 94.4062 45.8516V44.8203C94.4062 43.3047 94.7031 41.7656 95.2969 40.2031C96.5 37.0781 98.4609 34.9219 101.18 33.7344C102.617 33.0938 104.078 32.7734 105.562 32.7734H106.57C108.617 32.7734 110.344 33.4609 111.75 34.8359C113.172 36.1953 113.883 37.9531 113.883 40.1094V40.5781C113.883 42.1094 113.273 43.1953 112.055 43.8359C111.211 44.2891 109.242 44.7422 106.148 45.1953C103.055 45.6484 101.367 45.9219 101.086 46.0156C100.148 46.3438 99.6797 46.9688 99.6797 47.8906C99.6797 49.1719 100.227 50.2656 101.32 51.1719C102.414 52.0781 103.883 52.5312 105.727 52.5312C106.586 52.5312 107.758 52.2969 109.242 51.8281C110.727 51.3594 111.586 51.125 111.82 51.125C112.617 51.125 113.016 51.4688 113.016 52.1562C113.016 53.0781 112.117 54 110.32 54.9219C108.523 55.8438 106.648 56.3047 104.695 56.3047ZM120.281 23.4219C120.281 22.2812 121.352 21.7109 123.492 21.7109H123.914C124.805 21.7109 125.414 21.9297 125.742 22.3672C126.07 22.7891 126.234 23.6172 126.234 24.8516L126.047 28.3438C126 28.8906 125.977 29.1875 125.977 29.2344L125.93 30.125C125.898 30.7031 125.867 31.2891 125.836 31.8828L125.766 32.7734L125.695 34.1094C125.445 38.8594 125.32 42.3672 125.32 44.6328C125.32 46.8828 125.422 48.5 125.625 49.4844C125.828 50.4688 126.148 51.3047 126.586 51.9922C127.023 52.6797 127.242 53.1328 127.242 53.3516V53.6328C127.242 54.3203 126.898 54.8672 126.211 55.2734C125.539 55.6797 124.625 55.8828 123.469 55.8828H122.25C121.531 55.8828 120.898 55.6797 120.352 55.2734C119.82 54.8516 119.555 54.375 119.555 53.8438V53.2109L119.695 52.2266C119.883 50.8672 119.992 49.8516 120.023 49.1797C120.07 48.4922 120.141 47.5469 120.234 46.3438C120.328 45.125 120.477 42.5391 120.68 38.5859C120.898 34.6172 121.008 32.4844 121.008 32.1875L121.102 30.4297L121.148 28.6953C121.148 27.0391 121 25.8594 120.703 25.1562C120.422 24.4375 120.281 23.8594 120.281 23.4219ZM136.148 56.375H135.422C134.641 56.375 134.031 56.1953 133.594 55.8359C133.172 55.4766 132.961 55 132.961 54.4062C132.93 54.2812 132.914 54.1797 132.914 54.1016L132.867 53.7031V53.2812L132.891 53.1875V52.9766C132.922 52.8516 132.938 52.75 132.938 52.6719C132.938 51.9688 133.172 51.4219 133.641 51.0312C134.125 50.625 134.656 50.4219 135.234 50.4219L135.727 50.3516H136.359C138.062 50.3516 138.914 51.2422 138.914 53.0234V53.3516L138.82 54.1484C138.82 54.8672 138.547 55.4219 138 55.8125C137.469 56.1875 136.852 56.375 136.148 56.375Z" fill="#0D7FCC"/>
</svg>
